<svg width="338" height="459" viewBox="0 0 338 459" fill="none" xmlns="http://www.w3.org/2000/svg">
<path d="M265.511 158.785C272.581 140.515 282.221 121.885 279.641 102.455C276.741 80.5651 257.641 62.8851 236.191 57.8151C214.741 52.7451 191.661 58.7451 172.801 70.2351C153.941 81.7251 138.711 98.2951 124.941 115.565C96.9412 150.755 73.5512 190.435 62.2012 233.975C50.8512 277.515 52.2012 325.245 71.4012 365.975C89.6196 404.111 121.901 433.708 161.471 448.555C205.521 464.855 258.311 459.985 295.121 430.805C331.931 401.625 348.511 347.195 328.991 304.475C316.511 277.255 292.701 258.095 274.701 234.875C257.321 212.405 255.311 185.125 265.511 158.785Z" fill="#5ECED1"/>
<path d="M266.581 192.875C266.921 200.875 269.411 209.755 276.521 213.315C281.801 215.965 288.411 214.775 293.341 211.515C298.271 208.255 301.731 203.215 304.461 197.975C309.391 188.525 312.321 177.685 310.611 167.165C308.561 154.625 295.611 137.335 281.981 147.675C269.921 156.755 265.981 178.815 266.581 192.875Z" fill="#5ECED1"/>
<path d="M291.791 235.395C291.861 238.315 292.471 241.395 294.441 243.545C297.331 246.715 302.691 246.905 306.141 244.375C309.591 241.845 311.081 237.125 310.291 232.915C309.501 228.705 305.561 222.095 300.451 222.295C294.091 222.545 291.671 230.195 291.791 235.395Z" fill="#5ECED1"/>
<path d="M112.934 112.185C117.684 107.385 122.514 102.465 125.474 96.4051C128.434 90.3451 129.274 82.8151 125.934 76.9451C122.144 70.3051 113.734 67.3051 106.134 68.1351C98.5336 68.9651 91.6336 73.0051 85.5636 77.6551C78.5736 82.9651 72.1836 89.4951 68.6536 97.5551C65.1236 105.615 64.8336 115.445 69.5036 122.905C73.5936 129.425 83.8136 134.675 91.5536 132.075C99.6036 129.375 107.184 118.035 112.934 112.185Z" fill="#5ECED1"/>
<path d="M177 295.35C168.68 301 160.17 306.75 150.46 309.35C145.46 310.69 139.85 311.06 135.56 308.24C130.48 304.89 128.89 297.89 130.17 291.94C131.45 285.99 135.03 280.84 138.52 275.86L172.16 260.19L177 295.35Z" fill="#EBA58E"/>
<path d="M166.63 266C147.29 322 135 411.79 135 411.79L168.1 413.45L191.85 262.58L166.63 266Z" fill="#468097"/>
<path d="M178.26 254.63C163.63 306.29 148.26 383.29 148.26 383.29L149.74 390.95L148.26 399.62H180.6L191.78 262.62L178.26 254.63Z" fill="white"/>
<path d="M178.26 254.63C172.56 274.74 166.76 298.69 161.8 320.44C167.426 318.396 172.831 315.786 177.93 312.65L170.49 376.19C170.372 377.226 169.876 378.182 169.098 378.876C168.319 379.569 167.313 379.952 166.27 379.95C165.562 379.951 164.865 380.128 164.242 380.465C163.619 380.802 163.089 381.288 162.7 381.88L161 384.55C160.521 385.294 159.822 385.871 159 386.2L152.53 388.7H163.22C164.597 388.703 165.93 389.187 166.987 390.069C168.045 390.952 168.76 392.176 169.01 393.53L170.12 399.62H180.7L191.88 262.62L178.26 254.63Z" fill="#E4E4E0"/>
<path d="M151 399.62L144 458.29H262.29L261.44 440.65C261.12 433.983 260.533 427.317 259.68 420.65L256.96 399.65L151 399.62Z" fill="#454F6B"/>
<path d="M259.42 418.65L256.96 399.62H170.05L162.46 423.95L259.42 418.65Z" fill="#422C4F"/>
<path d="M191.96 170.79L196.42 183.31L226.82 174.21L215.13 140.29L191.96 170.79Z" fill="#F2C9AD"/>
<path d="M215.13 140.29L192 170.79L195.1 179.48C211.79 174.79 215.46 146 215.13 140.29Z" fill="#472948"/>
<path d="M139.11 98.65C138.429 104.078 138.768 109.586 140.11 114.89C141.461 120.217 144.599 124.919 149 128.21C148.442 118.344 148.918 108.447 150.42 98.68C147.2 99.83 142.48 99.43 139.11 98.65Z" fill="#6A3649"/>
<path d="M217.49 108C214.81 97.58 208.49 88 199.39 82.22C190.29 76.44 178.39 74.96 168.51 79.16C158 83.66 150.66 94 148 105.17C145.34 116.34 146.86 128.08 150.24 139.02C153.48 149.53 158.69 159.85 167.33 166.66C175.97 173.47 188.56 176.04 198.22 170.77C203.52 167.87 207.49 162.94 210.22 157.55C217.59 143.16 221.56 123.85 217.49 108Z" fill="#F2C9AD"/>
<path d="M203.1 72C202.918 72.2998 202.76 72.6142 202.63 72.94C202.807 72.637 202.964 72.323 203.1 72Z" fill="white"/>
<path d="M197 120C196.058 118.347 194.719 116.956 193.105 115.95C191.49 114.945 189.65 114.357 187.751 114.241C185.853 114.125 183.955 114.484 182.23 115.285C180.505 116.086 179.006 117.305 177.87 118.83C183.81 118.16 191.09 119 197 120Z" fill="#6A3649"/>
<path d="M159.88 120.58C159.276 119.71 158.574 118.912 157.79 118.2C156.994 117.488 155.977 117.071 154.91 117.02C154.009 117.085 153.146 117.408 152.425 117.951C151.703 118.494 151.153 119.233 150.84 120.08C150.231 121.778 149.962 123.579 150.05 125.38C152.985 123.158 156.323 121.528 159.88 120.58V120.58Z" fill="#6A3649"/>
<path d="M192.76 130.21C192.83 129.588 192.769 128.957 192.581 128.36C192.393 127.762 192.083 127.211 191.67 126.74C191.191 126.148 190.592 125.664 189.912 125.32C189.233 124.975 188.488 124.778 187.727 124.741C186.966 124.704 186.206 124.829 185.497 125.106C184.787 125.383 184.144 125.807 183.61 126.35C183.153 126.778 182.79 127.298 182.545 127.875C182.301 128.452 182.18 129.073 182.19 129.7C182.782 128.814 183.593 128.096 184.544 127.616C185.495 127.136 186.555 126.911 187.619 126.962C188.684 127.014 189.717 127.34 190.618 127.909C191.518 128.478 192.257 129.271 192.76 130.21V130.21Z" fill="#472948"/>
<path d="M161.1 133C160.708 131.867 160.017 130.862 159.1 130.09C158.709 129.712 158.23 129.438 157.706 129.291C157.182 129.144 156.63 129.13 156.1 129.25C155.62 129.472 155.21 129.821 154.915 130.261C154.621 130.7 154.453 131.212 154.43 131.74C154.284 132.91 154.479 134.097 154.99 135.16C154.99 133.32 155.76 131.73 156.93 131.31C158.1 130.89 159.75 131.62 161.1 133Z" fill="#472948"/>
<path d="M178.63 142.64L169.05 143.56C170.05 145.35 171.71 146.71 173.77 146.56C174.852 146.387 175.869 145.934 176.722 145.247C177.574 144.559 178.232 143.66 178.63 142.64V142.64Z" fill="#EBA58E"/>
<path d="M197.63 146.38C189.308 150.796 180.383 153.967 171.14 155.79C174.83 158.9 179.27 161.79 184.08 162.03C186.024 162.108 187.962 161.759 189.757 161.007C191.552 160.256 193.161 159.12 194.47 157.68C195.76 156.123 196.708 154.313 197.252 152.366C197.797 150.419 197.925 148.38 197.63 146.38V146.38Z" fill="white"/>
<path d="M197.19 161.8C194.421 163.736 191.354 165.206 188.11 166.15C189.346 166.736 190.677 167.099 192.04 167.22C193.359 167.2 194.634 166.739 195.66 165.91C196.185 165.368 196.592 164.723 196.856 164.015C197.119 163.308 197.233 162.554 197.19 161.8V161.8Z" fill="#EBA58E"/>
<path d="M198.9 142.64C204.042 142.64 208.21 140.778 208.21 138.48C208.21 136.182 204.042 134.32 198.9 134.32C193.758 134.32 189.59 136.182 189.59 138.48C189.59 140.778 193.758 142.64 198.9 142.64Z" fill="#EBA58E"/>
<path d="M163 140C163.65 141.46 162.34 143.47 160.06 144.47C157.78 145.47 155.42 145.11 154.77 143.64C154.12 142.17 155.44 140.16 157.71 139.16C159.98 138.16 162.36 138.51 163 140Z" fill="#EBA58E"/>
<path d="M190.4 104.45C193.71 115.33 203.82 119.59 209.77 119.45L218.67 114.24C218.407 112.147 218.013 110.073 217.49 108.03C216.274 103.295 214.316 98.7831 211.69 94.66C190.47 96.7 169.37 99.7 148.39 103.66C148.25 104.15 148.11 104.66 147.99 105.15C147.369 107.779 146.965 110.455 146.78 113.15C161.784 113.51 176.682 110.539 190.4 104.45V104.45Z" fill="#EBA58E"/>
<path d="M217.7 134.92C215.204 133.199 213.173 130.886 211.789 128.188C210.405 125.49 209.712 122.492 209.77 119.46C201.68 117.14 194.38 110.46 192.52 102.24C178.72 107.17 164.02 108.93 149.36 109.13C144.68 109.19 139.88 108.99 135.53 107.25C131.18 105.51 127.31 101.98 126.28 97.41C124.71 90.41 130.07 83.72 135.8 79.41C154 65.52 180 62.85 200.57 72.7C199.71 69.12 199.57 66.03 198.71 62.45C199.738 62.7704 200.679 63.3214 201.461 64.0607C202.244 64.8001 202.847 65.7085 203.225 66.7165C203.603 67.7245 203.746 68.8055 203.643 69.8771C203.54 70.9488 203.193 71.9827 202.63 72.9C203.043 71.906 203.658 71.0088 204.437 70.2655C205.215 69.5221 206.14 68.9488 207.152 68.582C208.164 68.2152 209.241 68.063 210.315 68.1349C211.389 68.2069 212.436 68.5015 213.39 69L206.66 74.42C210.88 72.95 216.05 74.67 219.58 77.42C223.054 80.2875 225.526 84.1852 226.64 88.55C227.733 92.8921 228.221 97.3644 228.09 101.84C228.088 106.939 227.801 112.033 227.23 117.1C226.966 120.415 226.249 123.679 225.1 126.8C223.936 129.942 221.753 132.603 218.9 134.36L217.7 134.92Z" fill="#6A3649"/>
<path d="M129.88 96.77C130.88 91.56 134.19 86.98 138.3 83.61C142.53 80.3686 147.258 77.8356 152.3 76.11C160.3 73.11 168.7 71.03 177.22 71.11C185.74 71.19 194.39 73.65 201.08 78.93C207.94 76.22 216.41 78.93 221.64 84.13C224.095 86.6293 226.092 89.5401 227.54 92.73C227.33 91.2924 227.03 89.8695 226.64 88.47C225.526 84.1052 223.054 80.2075 219.58 77.34C216.05 74.61 210.88 72.89 206.66 74.34L213.39 69C212.437 68.5028 211.391 68.2095 210.318 68.1389C209.246 68.0684 208.17 68.222 207.16 68.59C205.456 69.2279 204.023 70.4317 203.1 72C202.963 72.323 202.806 72.637 202.63 72.94C202.76 72.6142 202.918 72.2998 203.1 72C203.789 70.3217 203.831 68.4479 203.22 66.74C202.828 65.7427 202.221 64.8444 201.441 64.1096C200.661 63.3748 199.729 62.8217 198.71 62.49C199.57 66.07 199.71 69.16 200.57 72.74C180 62.85 154 65.52 135.8 79.36C130.07 83.72 124.71 90.36 126.28 97.36C126.87 99.7844 128.164 101.98 130 103.67C129.478 101.404 129.437 99.053 129.88 96.77V96.77Z" fill="#8E5A61"/>
<path d="M223 117.18C224.277 116.531 225.717 116.273 227.14 116.438C228.563 116.603 229.906 117.185 231 118.11C233.53 120.52 233.43 124.55 232.83 128C232.475 130.497 231.722 132.921 230.6 135.18C229.458 137.452 227.564 139.257 225.24 140.29C211.93 145.61 214.34 121.36 223 117.18Z" fill="#F2C9AD"/>
<path d="M227.63 120.86C224.82 120.86 222.34 122.99 221.18 125.55C220.173 128.183 219.829 131.023 220.18 133.82C220.19 134.426 220.308 135.026 220.53 135.59C220.646 135.868 220.83 136.113 221.063 136.303C221.297 136.493 221.574 136.623 221.87 136.68C222.98 136.81 223.75 135.62 224.17 134.58C224.755 133.366 224.974 132.007 224.8 130.67C224.693 130.009 224.353 129.407 223.841 128.975C223.329 128.542 222.68 128.306 222.01 128.31C222.12 126.715 222.705 125.189 223.69 123.93C224.694 122.561 226.058 121.499 227.63 120.86Z" fill="#EBA58E"/>
<path d="M190.86 197.97L191.29 184.84L229.21 173.59L233.53 181.95L190.86 197.97Z" fill="#94C7D3"/>
<path d="M202.69 189.91L211.3 185.46C216.89 182.571 223.058 180.974 229.348 180.789C235.638 180.604 241.889 181.835 247.64 184.39V184.39C253.768 187.115 259.155 191.267 263.35 196.5C267.545 201.734 270.425 207.895 271.75 214.47L273.75 224.47C278.842 249.71 279.758 275.614 276.46 301.15L262 413.45H168.1L189.63 277.45L202.69 189.91Z" fill="#6CA8BF"/>
<path d="M233.53 233.03L196.02 297.11H190.96L182.88 319.83L196.24 233.03H233.53Z" fill="#41738C"/>
<path d="M255 266C240.46 295 196 346.2 196 346.2L199.55 344.47C214.54 337.175 226.881 325.383 234.85 310.74C246.32 289.71 254.2 276.82 255 266Z" fill="#468097"/>
<path d="M248.11 331.42C233.856 341.327 218.615 349.732 202.63 356.5C220.57 356.29 238 346.27 248.11 331.42Z" fill="#468097"/>
<path d="M126.5 192.48C118.843 215.481 120.329 240.545 130.65 262.48C133.97 269.48 138.65 276.48 145.91 279.1C147.466 284.942 148.583 290.892 149.25 296.9C149.341 297.809 149.648 298.683 150.144 299.449C150.64 300.216 151.312 300.854 152.104 301.309C152.896 301.765 153.784 302.025 154.697 302.069C155.609 302.112 156.518 301.938 157.35 301.56C158.18 301.17 158.99 300.75 159.79 300.29C160.646 299.786 161.355 299.067 161.847 298.204C162.338 297.34 162.594 296.363 162.59 295.37C162.353 288.379 161.685 281.409 160.59 274.5L170.06 270.24C171.267 274.464 172.136 278.778 172.66 283.14C172.775 284.049 173.115 284.915 173.648 285.66C174.182 286.405 174.892 287.006 175.716 287.408C176.539 287.81 177.45 288 178.365 287.962C179.281 287.924 180.173 287.659 180.96 287.19L181.07 287.12C181.896 286.631 182.58 285.935 183.054 285.1C183.528 284.265 183.775 283.32 183.77 282.36C183.652 276.577 182.657 270.845 180.82 265.36C197.22 228.88 162.61 186.54 162.61 186.54L126.5 192.48Z" fill="#797C99"/>
<path d="M146.73 206.15C154.73 204.68 162.6 197.97 165.16 190.03C163.59 187.83 162.6 186.61 162.6 186.61L126.5 192.48C125.77 194.63 125.15 196.83 124.58 199.03C130.43 204.68 138.74 207.62 146.73 206.15Z" fill="#495375"/>
<path d="M162.78 186.84C162.9 186.98 163.06 187.2 163.28 187.48L162.78 186.84Z" fill="#797C99"/>
<path d="M164.63 189.29C164.8 189.52 164.98 189.76 165.16 190.02C165 189.76 164.8 189.52 164.63 189.29Z" fill="#797C99"/>
<path d="M162.6 186.61L162.77 186.83L162.6 186.61Z" fill="#797C99"/>
<path d="M124.58 199C124.85 198 125.13 196.92 125.43 195.89C125.12 197 124.85 198 124.58 199Z" fill="#797C99"/>
<path d="M163.3 187.51C163.63 187.93 164.06 188.51 164.57 189.21C164.06 188.5 163.63 187.93 163.3 187.51Z" fill="#797C99"/>
<path d="M180.81 265.43C183.08 260.366 184.49 254.958 184.98 249.43C168.765 257.383 152.03 264.229 134.89 269.92C137.74 273.99 141.31 277.42 145.89 279.12C146.6 281.82 147.23 284.58 147.77 287.37L161.41 280.89C161.14 278.71 160.84 276.57 160.56 274.52L170.03 270.26C170.62 272.26 171.09 274.26 171.48 276.12L182.36 271C181.953 269.114 181.436 267.255 180.81 265.43V265.43Z" fill="#495375"/>
<path d="M125.43 195.92C125.77 194.76 126.11 193.61 126.5 192.48C126.11 193.61 125.76 194.76 125.43 195.92Z" fill="#495375"/>
<path d="M164.57 189.21L164.63 189.29L164.57 189.21Z" fill="#495375"/>
<path d="M146.73 206.15C154.73 204.68 162.6 197.97 165.16 190.03C164.98 189.77 164.8 189.53 164.63 189.3L164.57 189.22C164.06 188.51 163.63 187.94 163.3 187.52C163.08 187.24 162.92 187.02 162.8 186.88L162.63 186.66L126.53 192.53C126.14 193.66 125.8 194.81 125.46 195.97C125.12 197.13 124.88 198.04 124.61 199.08C130.43 204.68 138.74 207.62 146.73 206.15Z" fill="#495375"/>
<path d="M137 278.75C137.926 280.311 138.467 282.07 138.577 283.881C138.688 285.692 138.365 287.504 137.636 289.166C136.907 290.828 135.792 292.292 134.384 293.437C132.976 294.582 131.316 295.375 129.54 295.75C125.82 296.53 121.98 295.43 118.18 295.35C108.25 295.14 98.74 302.9 96.97 312.68C95.2 322.46 101.37 333.07 110.74 336.36C114.44 337.66 118.81 337.82 122.04 335.61C125.27 333.4 126.61 328.35 124.04 325.41C121.47 322.47 117.15 322.9 113.7 321.41C111.789 320.609 110.164 319.251 109.035 317.513C107.907 315.776 107.328 313.738 107.373 311.667C107.418 309.596 108.086 307.586 109.289 305.899C110.493 304.212 112.176 302.927 114.12 302.21C118.06 300.75 122.43 301.8 126.62 301.58C129.646 301.422 132.6 300.596 135.269 299.16C137.938 297.725 140.256 295.715 142.056 293.277C143.855 290.839 145.092 288.032 145.677 285.058C146.262 282.085 146.181 279.018 145.44 276.08C143.1 276.64 139.37 278.21 137 278.75Z" fill="#797C99"/>
<path d="M145.44 276.1C143.1 276.64 139.37 278.21 137.03 278.75C137.932 280.305 138.461 282.049 138.574 283.843C138.686 285.638 138.38 287.434 137.68 289.09C140.1 289.256 142.529 288.915 144.81 288.09C146.197 284.243 146.416 280.071 145.44 276.1Z" fill="#495375"/>
<path d="M156.71 222.7L189.59 277.45L233.53 233C237.445 229.028 240.03 223.937 240.925 218.432C241.821 212.926 240.984 207.279 238.53 202.27C236.811 198.745 234.341 195.638 231.295 193.169C228.248 190.699 224.698 188.925 220.893 187.972C217.089 187.02 213.122 186.911 209.271 187.653C205.42 188.395 201.778 189.971 198.6 192.27L156.71 222.7Z" fill="#6CA8BF"/>
<path d="M196 262.58C190.2 249.39 177.68 230.01 168 219.3C173.86 232.49 186.38 251.87 196 262.58Z" fill="#468097"/>
<path d="M172.67 249.29L184.12 260.29C186.036 262.125 188.551 263.205 191.201 263.332C193.851 263.458 196.457 262.623 198.54 260.98L232.13 234.5L189.59 277.5L172.67 249.29Z" fill="#468097"/>
<path d="M158 224.91L123.79 253.34C120.658 255.939 118.53 259.549 117.771 263.547C117.012 267.546 117.669 271.684 119.63 275.25C121.75 279.117 125.25 282.042 129.432 283.441C133.614 284.841 138.17 284.612 142.19 282.8L182 264.88L158 224.91Z" fill="#F2C9AD"/>
<path d="M158 224.91L182 264.91L166.49 271.91L170.39 267.48C171.657 266.044 172.468 264.264 172.721 262.366C172.973 260.468 172.656 258.538 171.81 256.82L156.71 226L158 224.91Z" fill="#EBA58E"/>
<path d="M156.35 219.42C154.92 217.42 153.22 215.14 150.75 214.74C148.944 214.612 147.143 215.053 145.6 216C144.33 216.534 143.23 217.406 142.42 218.52C141.22 220.52 142.58 221.88 143.5 223.52C144.559 225.644 145.394 227.873 145.99 230.17C146.529 232.002 147.267 233.769 148.19 235.44C151.99 232.064 156.403 229.45 161.19 227.74C159.931 224.775 158.305 221.98 156.35 219.42V219.42Z" fill="#797C99"/>
<path d="M161.15 227.76C156.363 229.47 151.95 232.084 148.15 235.46C148.566 236.173 149.051 236.843 149.6 237.46C151.43 239.46 154.28 240.83 156.93 240.14C158.087 239.785 159.133 239.139 159.969 238.264C160.804 237.388 161.4 236.312 161.7 235.14C162.262 232.76 162.085 230.266 161.19 227.99C161.172 227.914 161.158 227.837 161.15 227.76V227.76Z" fill="#99A3B0"/>
<path d="M146.55 234.45C145.028 235.581 143.178 236.186 141.282 236.171C139.385 236.157 137.545 235.525 136.04 234.37C134.186 232.695 132.988 230.416 132.66 227.94C132.335 225.482 132.305 222.995 132.57 220.53C129 235.45 135 244.09 135 244.09L146.55 234.45Z" fill="#495375"/>
<path d="M147.83 228.69C147.225 226.396 146.39 224.168 145.34 222.04C144.41 220.41 143.05 219.04 144.25 217.04C144.369 216.868 144.499 216.704 144.64 216.55C143.743 217.019 142.979 217.707 142.42 218.55C141.22 220.55 142.58 221.91 143.5 223.55C144.559 225.674 145.394 227.903 145.99 230.2C146.529 232.032 147.267 233.799 148.19 235.47C148.78 234.94 149.39 234.47 150.01 233.94C149.091 232.276 148.36 230.515 147.83 228.69V228.69Z" fill="#495375"/>
<path d="M151.47 236C150.917 235.384 150.428 234.714 150.01 234C149.39 234.49 148.78 235 148.19 235.53C148.606 236.243 149.091 236.913 149.64 237.53C151.47 239.53 154.32 240.9 156.97 240.21C158.205 239.88 159.31 239.182 160.14 238.21C159.721 238.445 159.274 238.627 158.81 238.75C156.16 239.35 153.3 238 151.47 236Z" fill="#797C99"/>
<path d="M183.27 202.71C181.84 200.66 180.15 198.43 177.68 198.03C175.87 197.905 174.067 198.357 172.53 199.32C171.255 199.851 170.151 200.723 169.34 201.84C168.14 203.84 169.5 205.19 170.43 206.84C171.486 208.965 172.321 211.194 172.92 213.49C173.457 215.319 174.195 217.083 175.12 218.75C178.908 215.383 183.303 212.77 188.07 211.05C186.831 208.077 185.218 205.274 183.27 202.71V202.71Z" fill="#797C99"/>
<path d="M188.07 211C183.303 212.72 178.908 215.333 175.12 218.7C175.536 219.413 176.022 220.083 176.57 220.7C178.39 222.7 181.25 224.07 183.9 223.38C185.056 223.024 186.102 222.378 186.938 221.502C187.773 220.627 188.369 219.552 188.67 218.38C189.234 216.003 189.053 213.51 188.15 211.24C188.13 211.19 188.1 211.12 188.07 211Z" fill="#99A3B0"/>
<path d="M174.75 212C174.155 209.702 173.321 207.473 172.26 205.35C171.34 203.71 169.98 202.35 171.17 200.35C171.292 200.175 171.426 200.008 171.57 199.85C170.675 200.325 169.91 201.012 169.34 201.85C168.14 203.85 169.5 205.2 170.43 206.85C171.486 208.975 172.321 211.204 172.92 213.5C173.457 215.329 174.195 217.093 175.12 218.76C175.71 218.24 176.32 217.76 176.94 217.24C176.023 215.578 175.288 213.821 174.75 212V212Z" fill="#495375"/>
<path d="M178.4 219.27C177.845 218.638 177.355 217.951 176.94 217.22C176.32 217.71 175.71 218.22 175.12 218.74C175.536 219.453 176.022 220.123 176.57 220.74C178.39 222.74 181.25 224.11 183.9 223.42C185.133 223.093 186.236 222.395 187.06 221.42C186.641 221.658 186.195 221.843 185.73 221.97C183.08 222.64 180.23 221.31 178.4 219.27Z" fill="#797C99"/>
<path d="M148.46 151.83C140.31 151.9 129.57 154.48 122.81 159.04L115.59 142.64C110.29 186.29 116.79 199.12 130.71 200.79C144.63 202.46 163.32 193.31 168.06 187.22C172.8 181.13 167.29 165.29 147.96 140.29L148.46 151.83Z" fill="#797C99"/>
<path d="M141.33 172.06C139.374 169.505 136.509 167.8 133.33 167.3C131.751 167.076 130.141 167.261 128.653 167.835C127.166 168.409 125.85 169.354 124.83 170.58C123.05 172.87 122.64 175.9 122.28 178.78C125.803 179.37 129.406 179.292 132.9 178.55C136.449 177.569 139.474 175.24 141.33 172.06V172.06Z" fill="white"/>
<path d="M131.19 177.91C132.406 177.909 133.589 177.519 134.568 176.798C135.547 176.078 136.27 175.063 136.633 173.903C136.996 172.743 136.979 171.497 136.584 170.347C136.19 169.197 135.438 168.203 134.44 167.51C134.074 167.419 133.704 167.349 133.33 167.3C130.902 166.984 128.444 167.599 126.45 169.02C125.874 169.879 125.542 170.879 125.49 171.912C125.438 172.946 125.667 173.974 126.154 174.886C126.641 175.799 127.366 176.563 128.253 177.095C129.14 177.628 130.155 177.91 131.19 177.91V177.91Z" fill="#21255C"/>
<path d="M147.94 170.06C147.94 166.97 148.83 164.06 150.67 162.35C151.536 161.532 152.623 160.987 153.796 160.781C154.969 160.574 156.177 160.717 157.27 161.19C159.27 162.06 161.01 163.95 162.6 165.76C161.154 167.79 159.244 169.446 157.03 170.59C155.567 171.164 153.996 171.414 152.427 171.323C150.858 171.231 149.327 170.8 147.94 170.06Z" fill="white"/>
<path d="M157.64 169.24C155.83 170.87 152.84 170.24 151.07 167.79C150.56 167.115 150.206 166.335 150.033 165.507C149.86 164.679 149.873 163.823 150.07 163C150.715 162.171 151.566 161.527 152.538 161.13C153.51 160.734 154.57 160.599 155.61 160.74C156.451 161.174 157.178 161.801 157.73 162.57C159.33 164.77 159.33 167.72 157.64 169.24Z" fill="#21255C"/>
<path d="M160 178.62C159.846 180.091 159.129 181.445 158 182.4C157.417 182.911 156.732 183.292 155.991 183.52C155.25 183.747 154.469 183.815 153.7 183.72C152.126 183.547 150.669 182.807 149.6 181.64C148.611 180.551 147.903 179.236 147.54 177.81C147.54 178.07 147.18 178.13 146.97 177.93C147.667 179.302 147.925 180.856 147.71 182.38C147.458 184.016 146.596 185.497 145.298 186.524C143.999 187.552 142.361 188.05 140.71 187.92C139.176 187.784 137.72 187.18 136.54 186.19C136.992 186.888 137.579 187.489 138.265 187.957C138.952 188.426 139.725 188.753 140.54 188.92C141.511 189.117 142.513 189.1 143.476 188.869C144.439 188.639 145.341 188.2 146.117 187.585C146.893 186.97 147.526 186.192 147.97 185.307C148.415 184.422 148.66 183.45 148.69 182.46C148.69 182.31 148.69 182.17 148.69 182.03L148.84 182.25C149.386 183.017 150.09 183.66 150.904 184.134C151.717 184.608 152.623 184.903 153.56 185C154.505 185.118 155.465 185.005 156.356 184.67C157.248 184.336 158.045 183.79 158.68 183.08C159.236 182.494 159.646 181.784 159.876 181.009C160.105 180.233 160.148 179.415 160 178.62Z" fill="#21255C"/>
<path d="M122.81 159C120.554 160.396 118.662 162.309 117.29 164.58C116.742 158.236 116.599 151.863 116.86 145.5L122.81 159Z" fill="#E47790"/>
<path d="M148.46 151.83C150.438 151.931 152.405 152.195 154.34 152.62C152.531 149.116 150.43 145.771 148.06 142.62L148.46 151.83Z" fill="#E47790"/>
<path d="M111.88 191.79C114.72 190.26 118.41 188.25 122.18 186.39C125.95 184.53 129.77 182.78 132.7 181.39C125.214 183.616 118.17 187.121 111.88 191.75V191.79Z" fill="#21255C"/>
<path d="M113 197.14C115.72 195.02 119.25 192.27 122.9 189.68C126.55 187.09 130.31 184.68 133.2 182.81C125.632 186.285 118.781 191.145 113 197.14V197.14Z" fill="#21255C"/>
<path d="M119.83 197.57C121.68 195.74 124.07 193.34 126.56 191.04C129.05 188.74 131.61 186.54 133.56 184.84C130.909 186.524 128.418 188.449 126.12 190.59C123.818 192.723 121.712 195.059 119.83 197.57V197.57Z" fill="#21255C"/>
<path d="M176.21 170C169.769 169.894 163.408 171.436 157.73 174.48C160.708 173.371 163.747 172.43 166.83 171.66C169.924 170.935 173.055 170.38 176.21 170V170Z" fill="#21255C"/>
<path d="M180.34 173.67C172.914 172.748 165.375 173.52 158.29 175.93C161.29 175.35 165.29 174.67 169.29 174.27C173.29 173.87 177.26 173.72 180.34 173.67Z" fill="#21255C"/>
<path d="M179.84 177.16C176.5 176.534 173.108 176.223 169.71 176.23C166.309 176.24 162.917 176.575 159.58 177.23C162.39 177.11 166.05 176.94 169.71 176.94C173.37 176.94 177 177.05 179.84 177.16Z" fill="#21255C"/>
<path d="M150.24 173.55C146.973 173.408 143.768 174.476 141.24 176.55C141.108 176.659 141.006 176.8 140.944 176.96C140.882 177.12 140.862 177.293 140.886 177.462C140.91 177.632 140.977 177.793 141.081 177.929C141.185 178.065 141.323 178.172 141.48 178.24C143.008 178.917 144.636 179.339 146.3 179.49C146.792 179.524 147.285 179.436 147.735 179.233C148.185 179.031 148.579 178.721 148.88 178.33C149.687 177.298 150.412 176.204 151.05 175.06C151.138 174.912 151.187 174.743 151.19 174.571C151.194 174.398 151.153 174.228 151.072 174.076C150.99 173.924 150.871 173.796 150.725 173.704C150.579 173.611 150.412 173.559 150.24 173.55Z" fill="#495375"/>
</svg>
